<mxfile><diagram id="iljRH1nTMNU0ofbFVup5" name="第 1 页"><mxGraphModel dx="1216" dy="779" grid="1" gridSize="10" guides="1" tooltips="1" connect="1" arrows="1" fold="1" page="1" pageScale="1" pageWidth="827" pageHeight="1169" math="0" shadow="0"><root><mxCell id="0"/><mxCell id="1" parent="0"/><mxCell id="21" value="" style="group" vertex="1" connectable="0" parent="1"><mxGeometry x="90" y="410" width="680" height="350" as="geometry"/></mxCell><mxCell id="5" value="&lt;font style=&quot;font-size: 24px;&quot;&gt;写作&lt;/font&gt;" style="rounded=1;whiteSpace=wrap;html=1;" vertex="1" parent="21"><mxGeometry x="200" y="200" width="110" height="40" as="geometry"/></mxCell><mxCell id="6" value="&lt;font style=&quot;font-size: 24px;&quot;&gt;输出&lt;/font&gt;" style="whiteSpace=wrap;html=1;rounded=1;arcSize=50;" vertex="1" parent="21"><mxGeometry x="385" y="190" width="120" height="60" as="geometry"/></mxCell><mxCell id="7" value="" style="edgeStyle=none;html=1;fontSize=24;" edge="1" parent="21" source="5" target="6"><mxGeometry relative="1" as="geometry"/></mxCell><mxCell id="8" value="文章" style="ellipse;whiteSpace=wrap;html=1;fontSize=24;" vertex="1" parent="21"><mxGeometry x="560" y="100" width="120" height="80" as="geometry"/></mxCell><mxCell id="9" value="视频" style="ellipse;whiteSpace=wrap;html=1;fontSize=24;" vertex="1" parent="21"><mxGeometry x="550" y="270" width="120" height="80" as="geometry"/></mxCell><mxCell id="12" value="" style="endArrow=classic;html=1;fontSize=24;" edge="1" parent="21"><mxGeometry width="50" height="50" relative="1" as="geometry"><mxPoint x="500" y="200" as="sourcePoint"/><mxPoint x="560" y="150" as="targetPoint"/></mxGeometry></mxCell><mxCell id="13" value="" style="endArrow=classic;html=1;fontSize=24;exitX=1;exitY=0.75;exitDx=0;exitDy=0;" edge="1" parent="21" source="6" target="9"><mxGeometry width="50" height="50" relative="1" as="geometry"><mxPoint x="510" y="270" as="sourcePoint"/><mxPoint x="560" y="220" as="targetPoint"/></mxGeometry></mxCell><mxCell id="15" value="" style="curved=1;endArrow=classic;html=1;fontSize=24;entryX=0;entryY=0.25;entryDx=0;entryDy=0;" edge="1" parent="21" target="5"><mxGeometry width="50" height="50" relative="1" as="geometry"><mxPoint x="-10" y="10" as="sourcePoint"/><mxPoint x="130" y="100" as="targetPoint"/><Array as="points"><mxPoint x="80" y="130"/><mxPoint x="70" y="70"/><mxPoint x="120" y="140"/></Array></mxGeometry></mxCell><mxCell id="16" value="输入" style="text;html=1;align=center;verticalAlign=middle;resizable=0;points=[];autosize=1;strokeColor=none;fillColor=none;fontSize=24;" vertex="1" parent="21"><mxGeometry x="135" y="100" width="70" height="40" as="geometry"/></mxCell><mxCell id="17" value="&lt;font style=&quot;font-size: 14px;&quot;&gt;读书，咨询，文章&lt;/font&gt;" style="text;html=1;align=center;verticalAlign=middle;resizable=0;points=[];autosize=1;strokeColor=none;fillColor=none;fontSize=24;" vertex="1" parent="21"><mxGeometry x="40" y="30" width="140" height="40" as="geometry"/></mxCell><mxCell id="18" value="听，看" style="text;html=1;align=center;verticalAlign=middle;resizable=0;points=[];autosize=1;strokeColor=none;fillColor=none;fontSize=14;" vertex="1" parent="21"><mxGeometry width="70" height="30" as="geometry"/></mxCell><mxCell id="19" value="" style="curved=1;endArrow=classic;html=1;fontSize=14;" edge="1" parent="21"><mxGeometry width="50" height="50" relative="1" as="geometry"><mxPoint x="20" y="340" as="sourcePoint"/><mxPoint x="200" y="240" as="targetPoint"/><Array as="points"><mxPoint x="120" y="300"/><mxPoint x="150" y="240"/></Array></mxGeometry></mxCell><mxCell id="20" value="语音录入" style="text;html=1;align=center;verticalAlign=middle;resizable=0;points=[];autosize=1;strokeColor=none;fillColor=none;fontSize=14;" vertex="1" parent="21"><mxGeometry x="10" y="290" width="80" height="30" as="geometry"/></mxCell><mxCell id="24" value="" style="edgeStyle=none;html=1;fontSize=18;" edge="1" parent="1" source="22" target="5"><mxGeometry relative="1" as="geometry"/></mxCell><mxCell id="25" value="" style="edgeStyle=none;html=1;fontSize=18;" edge="1" parent="1" source="22" target="5"><mxGeometry relative="1" as="geometry"/></mxCell><mxCell id="22" value="没有想法时，把每天的读书笔记总结，写一个用自己的话解释的文章&lt;br&gt;" style="whiteSpace=wrap;html=1;fontSize=14;" vertex="1" parent="1"><mxGeometry x="350" y="750" width="190" height="60" as="geometry"/></mxCell></root></mxGraphModel></diagram><diagram id="1u5c_H-2Nmq-tgWS3mz4" name="第 2 页">
        <mxGraphModel dx="1134" dy="779" grid="1" gridSize="10" guides="1" tooltips="1" connect="1" arrows="1" fold="1" page="1" pageScale="1" pageWidth="827" pageHeight="1169" math="0" shadow="0">
            <root>
                <mxCell id="0"/>
                <mxCell id="1" parent="0"/>
            </root>
        </mxGraphModel>
    </diagram></mxfile>